<svg width="1440" height="96" viewBox="0 0 1440 96" fill="none" xmlns="http://www.w3.org/2000/svg">
<path fill-rule="evenodd" clip-rule="evenodd" d="M1440 59.9267L1359.89 70.2589C1279.78 80.5911 1119.56 100.567 960.33 95.0562C800.11 90.2345 639.89 59.9267 479.67 55.105C320.44 50.2833 160.22 70.2589 80.1099 80.5911L-9.53674e-07 90.2345V-3.66686e-06H80.1099C160.22 -3.66686e-06 320.44 -3.66686e-06 479.67 -3.66686e-06C639.89 -3.66686e-06 800.11 -3.66686e-06 960.33 -3.66686e-06C1119.56 -3.66686e-06 1279.78 -3.66686e-06 1359.89 -3.66686e-06L1440 -3.66686e-06V59.9267Z" fill="white"/>
</svg>
