<svg width="32" height="32" viewBox="0 0 32 32" fill="none" xmlns="http://www.w3.org/2000/svg">
<rect width="32" height="32" rx="16" fill="#ECEFF4"/>
<path d="M12.2718 19.2016C13.1563 19.2016 13.8734 18.4846 13.8734 17.6C13.8734 16.7155 13.1563 15.9984 12.2718 15.9984C11.3872 15.9984 10.6702 16.7155 10.6702 17.6C10.6702 18.4846 11.3872 19.2016 12.2718 19.2016Z" fill="#353E4B"/>
<path d="M19.344 21.4257C18.3728 22.1217 17.1931 22.4654 16 22.4001C14.8077 22.4536 13.6329 22.0979 12.6704 21.3921C12.5873 21.3258 12.4827 21.2925 12.3765 21.2985C12.2704 21.3045 12.1702 21.3495 12.0951 21.4247C12.02 21.5 11.9754 21.6003 11.9696 21.7065C11.9639 21.8126 11.9975 21.9172 12.064 22.0001C13.2 22.8561 14.5952 23.2945 16.0176 23.2321C17.4378 23.2945 18.8351 22.8587 19.968 22.0001V22.0641C20.0518 21.9805 20.0997 21.8676 20.1015 21.7492C20.1033 21.6309 20.0588 21.5166 19.9776 21.4305C19.9363 21.3886 19.8872 21.3552 19.833 21.3323C19.7788 21.3093 19.7206 21.2973 19.6618 21.2968C19.603 21.2964 19.5446 21.3076 19.4901 21.3297C19.4356 21.3518 19.3859 21.3844 19.344 21.4257ZM19.6784 16.0641C19.2541 16.0641 18.8471 16.2327 18.547 16.5327C18.247 16.8328 18.0784 17.2397 18.0784 17.6641C18.0784 18.0884 18.247 18.4954 18.547 18.7955C18.8471 19.0955 19.2541 19.2641 19.6784 19.2641L19.6656 19.3265C19.6912 19.3297 19.7184 19.3265 19.7472 19.3265C20.1705 19.309 20.5696 19.1243 20.857 18.813C21.1443 18.5017 21.2965 18.0891 21.28 17.6657C21.2802 17.4553 21.2389 17.2469 21.1585 17.0525C21.0781 16.8581 20.9601 16.6815 20.8114 16.5327C20.6626 16.384 20.486 16.266 20.2916 16.1856C20.0971 16.1052 19.8888 16.0639 19.6784 16.0641Z" fill="#353E4B"/>
<path d="M16 0C7.1664 0 0 7.1632 0 16C0 24.8336 7.1664 32 16 32C24.8336 32 32 24.8336 32 16C32 7.1632 24.8336 0 16 0ZM25.3744 18.128C25.3936 18.3616 25.3936 18.5968 25.3744 18.8304C25.3744 22.4144 21.2 25.3296 16.0464 25.3296C10.8928 25.3296 6.7184 22.4176 6.7184 18.8304C6.6992 18.5967 6.6992 18.3617 6.7184 18.128C6.3815 17.9734 6.08621 17.7409 5.85694 17.4497C5.62767 17.1584 5.471 16.8168 5.39987 16.453C5.32874 16.0893 5.3452 15.7138 5.44788 15.3576C5.55057 15.0015 5.73653 14.6749 5.9904 14.4048C6.20035 14.1812 6.45235 14.0012 6.73196 13.875C7.01156 13.7489 7.3133 13.6792 7.61989 13.6698C7.92649 13.6605 8.23192 13.7117 8.5187 13.8205C8.80549 13.9293 9.06799 14.0936 9.2912 14.304C11.1346 13.0544 13.3028 12.3704 15.5296 12.336L16.7184 6.784V6.7776C16.7478 6.64926 16.8266 6.53768 16.9377 6.46701C17.0488 6.39634 17.1833 6.37227 17.312 6.4L21.2304 7.184C21.4225 6.855 21.7256 6.60525 22.0852 6.47958C22.4448 6.35391 22.8375 6.36056 23.1927 6.49832C23.5479 6.63609 23.8423 6.89595 24.0232 7.23125C24.204 7.56656 24.2594 7.95535 24.1794 8.32782C24.0994 8.70029 23.8893 9.03205 23.5867 9.26355C23.2841 9.49504 22.909 9.61109 22.5285 9.59088C22.1481 9.57067 21.7873 9.41551 21.511 9.15326C21.2347 8.89102 21.0609 8.53885 21.0208 8.16L17.6 7.44L16.5616 12.432C18.7619 12.4795 20.9014 13.163 22.7216 14.4C23.0468 14.0884 23.4551 13.8775 23.8974 13.7927C24.3397 13.7078 24.7971 13.7526 25.2145 13.9217C25.632 14.0907 25.9916 14.3769 26.2502 14.7456C26.5088 15.1143 26.6553 15.5499 26.672 16C26.688 16.9008 26.1808 17.728 25.3744 18.128Z" fill="#353E4B"/>
</svg>
