<svg width="1440" height="208" viewBox="0 0 1440 208" fill="none" xmlns="http://www.w3.org/2000/svg">
<g filter="url(#filter0_d)">
<path fill-rule="evenodd" clip-rule="evenodd" d="M1448 164.662L1367.11 174.199C1286.22 183.099 1124.44 201.536 962.667 174.199C800.889 146.225 639.111 73.1126 477.333 68.6622C315.556 64.2119 153.778 128.424 72.8888 160.212L-8 192V-1.52588e-05H72.8888C153.778 -1.52588e-05 315.556 -1.52588e-05 477.333 -1.52588e-05C639.111 -1.52588e-05 800.889 -1.52588e-05 962.667 -1.52588e-05C1124.44 -1.52588e-05 1286.22 -1.52588e-05 1367.11 -1.52588e-05H1448V164.662Z" fill="url(#paint0_linear)"/>
</g>
<defs>
<filter id="filter0_d" x="-16" y="-3.05176e-05" width="1472" height="208" filterUnits="userSpaceOnUse" color-interpolation-filters="sRGB">
<feFlood flood-opacity="0" result="BackgroundImageFix"/>
<feColorMatrix in="SourceAlpha" type="matrix" values="0 0 0 0 0 0 0 0 0 0 0 0 0 0 0 0 0 0 127 0"/>
<feOffset dy="8"/>
<feGaussianBlur stdDeviation="4"/>
<feColorMatrix type="matrix" values="0 0 0 0 0 0 0 0 0 0 0 0 0 0 0 0 0 0 0.1 0"/>
<feBlend mode="normal" in2="BackgroundImageFix" result="effect1_dropShadow"/>
<feBlend mode="normal" in="SourceGraphic" in2="effect1_dropShadow" result="shape"/>
</filter>
<linearGradient id="paint0_linear" x1="720" y1="375.5" x2="720" y2="1.00493e-05" gradientUnits="userSpaceOnUse">
<stop stop-color="#2E3440"/>
<stop offset="1" stop-color="#0A0E0C"/>
</linearGradient>
</defs>
</svg>
